<svg id="Layer_1" data-name="Layer 1" xmlns="http://www.w3.org/2000/svg" viewBox="0 0 1500 1000"><defs><style>.cls-1{fill:#fff;}.cls-2{fill:#d80f40;}.cls-3{fill:#ffc10e;}.cls-4{fill:#bbbdbf;}.cls-5{fill:#dfa12d;}.cls-6{fill:#e1a02d;}</style></defs><title>Poland</title><rect class="cls-1" width="1500" height="999.99"/><rect class="cls-2" y="499.99" width="1500" height="500"/><path class="cls-2" d="M551.1,33.61V370.66C551.1,472.23,750,434.59,750,483.4c0-48.81,198.9-11.17,198.9-112.74v-337Z"/><path id="path3360" class="cls-3" d="M720.85,58.57c6.23,10.87,8.72,21.16,12.17,31,5.7-.78,12.22.77,18.68,1.23,7.37,1.44,13.2,2.07,18.68,1.23,3.36-15.48,6.27-23.22,13-34.11-3,2-9.29,2.84-11.76,6.52-3.72-3.31-6.66-1.24-8.51,2.26.63-2.8-.21-5.16-3.86-5.39,2.17-4.06-1.17-6.07-4.65-4.25-.1-3.54-2.93-3.57-3.13-5.46-.47,2.19-2.95,1.11-2.59,6.39-2.82-2.27-5.58-.8-4.52,3.19-3.43,0-4.38,2.8-4.06,6.31-2.34-5.44-6.75-3.78-8.31-1.86C729.2,60.2,727.12,63.62,720.85,58.57Z"/><path id="path3358" class="cls-1" d="M775.78,86.28c-4,6.82-5.67,7.29-23.06,4.62C739,89.52,726.56,85.64,726,98.11c4.55.54,11.17,1,14.06,10.76l-8.42,7.18c-6,.94-15.33,8.9-21.52,1.5-1.71,7,4.68,8.91,11.35,8.63,4.66-.48,6.16-1.73,14.87-3.45l2.32,2.48c13.16,1.09,20,19.92-1.37,31-.83,2.56.53,5.63,2.56,6-6.2,8.78-16.39,19.74-20.05,12.51-.85.8-3.25,6.78,1.4,10.08-3.53,4.35-4.89,9.49-4.71,15.44-14.07-2.2-23.34-4.59-20.19-17.75,15,.69,19-17.4,16.84-26.57-8.71-36.62-56-66-90.33-66.94,1.91,10,8.06,17.15,15.06,23.78-9.12-4.44-19.7-8.74-30.78-6.49,1.28,7.87,5.55,17,23.5,31.9-12.94-7.69-24.88-15.19-29.08-21.31-1.87,2.53-2.92,12.79,8.13,20.28-3.51-1.4-20.86-1.27-26.1,2.57,3.17,7.21,17.64,19.81,29.52,23.7A61.53,61.53,0,0,1,581.56,149c-1.43,1.28.06,14.62,12.06,19.93-3.89.26-17.15,4-20.58,8.25,6.93,9.24,24.62,17.38,33.42,17.42A80.9,80.9,0,0,1,575.91,192c.12,3.07-2.46,15.38,30.38,13.35-11.72,5.53-29.39,17.05-32.22,27.21,11.38,5,31.79.89,42.34-2.42-31.21,19-36.08,21-41.87,19.7,7.56,16,25.77,5.18,41.5-3.77C596.7,272,593.56,285.17,594,303.51c15.57-1.87,38.12-24.19,50.14-43.21-13.93,28.64-22.22,51.67-37.4,58.44,17.3,6.85,32.14-14.85,42.56-37.87-4,14.57-5.65,45.46-.55,53,15.64-10.59,27.49-34.11,35.42-61.08-2.7,13.29-4.71,26.58-9.58,39.86,10.05,1.92,15.19-16.12,18.58-26.69a7.49,7.49,0,0,0,1.66,1.92c12.7-9.21,16.74-30.59,17.63-39,11.58,3.29,16.67-.91,19.64-3.06,2.54,3.51,2.7,9,3.41,9.74-12.59-10.23-26.1,0-26.65,17.06a33,33,0,0,1-14.67,21.7c.59.77,1.92,1.08,3.64,1.05a30.36,30.36,0,0,1-6,7.9,7.86,7.86,0,0,0,2.5.63,23.23,23.23,0,0,1-9.17,8.56c.85.81,1.33,1.08,3.89,1.78a25.25,25.25,0,0,1-9.79,7.45c6.89,4.09,12.16,4.62,16.44,4.23h0c-2.73,5.4-7.13,8.13-11.43,10.55a4.46,4.46,0,0,0,4.29,1.16c-3.89,4-8,7.22-11.7,8.37.67.5,1.14,1.2,3.53,1-2.65,3.27-5.87,6.47-11.56,7.95,1.13,2.17,3.44,1.84,5.44,1.91-1.55,3.35-6.42,4.47-11.35,5.51,3.71,1.05,6.24,3,4,2.52-1.5,1.81-3,2.75-6.19,3.23s-15.13-3.76-19.89-2.12a9.09,9.09,0,0,0-8.06-4.54c-4.4,0-8.72,2.81-8.93,6.72-.68-.47-3.55-.85-3.11,2.56,1,2,1.08,3.61,7.42,6.05a8.39,8.39,0,0,0,3.8.64,11.54,11.54,0,0,0,6.67-2.87l0,.07c3.16.58,6.63,1.11,8.54,1.91-5,.4-6.7,3.15-9.54,5.13a29.22,29.22,0,0,1-3.28-.52l0,0a6.85,6.85,0,0,0-1.95-.2c-3.56.19-7.15,4.21-7.53,8.75a4.61,4.61,0,0,0,.59,2.62l0,.77a1.87,1.87,0,0,0,.39,3,12.15,12.15,0,0,0,8.5.35c3.95-.48,7.25-3.73,7.25-7.35v0l.08.09c4.66-1,9.26-2.26,11.82-4.14a1.62,1.62,0,0,1,.15,1,11.2,11.2,0,0,0-5.7,7.2c-.42,0-.83-.06-1.21-.06-5.33,0-6.65,3.68-6.55,6.69s1.15,4.82,2.68,6c-.33,1.83-.1,3.36,1.79,4,6.37,1,7.9-2.3,9.18-2.22a3.73,3.73,0,0,1,.34-2c2-.91,3.28-1.65,3.46-5.32.17-2.28-.22-3.67-1-4.57l.17.05v0h.07v-.05A80.83,80.83,0,0,0,669,383.58a24.18,24.18,0,0,0,9.76-.43l-.09.89c-2.34,2.22-.75,7.54,2.33,7.42a3,3,0,0,0,0,1.45c2,1.23,5.71.36,8.53,1,1.45-.18,2.13-1.15,1.77-3.13l0,0a7,7,0,0,0,3.49-6.82,7.9,7.9,0,0,0-7.37-7.88h0c-4.36-.48-8.54,2.67-7.63-4.12,11.93-14.13,28.22-35.47,32.67-38.06a6.23,6.23,0,0,1-.8-1.66c1.77,4.68,8.46,9.61,15.49,9.19-1.27-2.41-2.68-4.55-3.18-11,1,1.52,2.85,2.23,5,2.68-3.29-15,1.62-27.42,11.72-38.72-.8,14.55-2.64,29.19-11.48,44,4.55,1.42,10.49-3.21,11.31-6,1,13.1-11.45,30-21.16,21.88-6.1,13.41,8.36,19.91,17.48,12.13-1.54,8.11-7.88,12.88-14.79,14.74s-14.11-1.07-9.51-12.13c-1-.58-14.83-.93-15.23,14.18.42,8.73,6.31,12,6.84,12.17-19.75,15,.15,31.7,16.46,28.45,12.92-2,20.27-12.47,25-20.07-1.42,5.47-7.27,23,7.63,42,14.76-23.05,8.51-38.58,8.16-41,11.6,17.88,23,19.17,29.8,18.73,11.56.18,27.92-18,7.12-29.6,10.64-5.07,11.35-26.13-3.65-27.21,3.09,8.35-3.43,13.39-10.62,12.74s-13.82-4.8-16.37-14.14c14.16,6.81,20.73-6.59,15.91-13.86-12.08,10-17.8-6-19.42-15.57,3.09,2.35,5.76,3.17,11,2.4-9.83-12.64-12.12-29.6-13-45.52,6.69,10.64,13.29,23.65,13.08,36.41,1.55-.76,3-1,5.74-6.55.25,9.54-.84,10.83-4.06,14.82,5.28,2.22,12.22-2.05,15.53-7.72a.05.05,0,0,1,0,0c10.26,13.86,21.35,28.09,32.13,39.09,2.34,2.44,3.15,4.88-1.18,5.74-13.86-5.12-15.31,9.38-9.57,11.34a6.81,6.81,0,0,0-.18,4.1c2.73.84,8.3-1.42,9.79-1.5.7-.63.7-1.94.68-3.28a3.51,3.51,0,0,0,3-2c2.7.52,5.32.86,8.74-2l10.25,10.29c.53.31-.54,1.41.91,1.55-1.14,6.83,1.46,7.61,3.69,9.33-.46,6.54,9.32,2.77,10.29,3.14a1.68,1.68,0,0,0,.95-2c1.14-1.2.61-1.8.23-2.65,4.9-7.47-2-13.17-5.87-12.52-4.07-4.46-7-6.34-10.29-9,6.72,2.54,17.1,5.41,20.07,7.61,1.14,7.63,7.83,4.47,12.75,4.74,1.54-2.15.71-2.82,0-3.56,6.49-8.36-7.19-15.23-13-10.28-3.45-3.19-6.44-3.75-9.56-5,1.3-1.3,4.06-2.32,10.25-2.73,2.78,1.84,5.55,2.49,8.33.46a3,3,0,0,0,4.41,1.46c2-2.35,2.09-5.9,2.65-9.16a3,3,0,0,0-3-1.91c-4.21-7.19-12.33-2.82-12.8.41-7,.57-13.23,1.47-20.62,4.42-2.44.73-4.77-1.91-6.83-3.42,1.87-.75,3.5-1.6,3.45-3.19-3-.29-5.91-.08-9.37-3.64l.91-2.46c-2.68-.82-5.55-2.76-9.06-8.28a5.46,5.46,0,0,0,2-2.46,18.25,18.25,0,0,1-9.93-6.15,6.88,6.88,0,0,0,2.69-2.59c-3.73-2.25-7.32-4.21-14.46-13.52l-.08-.14c7.52,1.26,15.38.52,20-2.86-3.69-1-10.22-3.18-13.13-8.81a13.57,13.57,0,0,0,3.14-.66c-5.64-3.72-7.14-5.74-8.57-8.75a4.33,4.33,0,0,0,3.45-1.25,12.77,12.77,0,0,1-6.53-6.37c1.5,0,3.07.32,4.28-.6-14.37-6.48-12.38-40.08-27.8-40.19-6.87.57-8.11,2-11.65,3.86A37.58,37.58,0,0,1,772.7,246c8.42,3.93,15.1,1.71,17.36-.26,1.16,13.51,5.49,28,14.86,35.25a19.87,19.87,0,0,0,4.72-3.37c1.67,12.54,6.35,29,16.87,27.67-4.85-12.08-4.77-24.22-5.31-36.29,4.42,35.42,15.29,56.08,24.27,62.27,4.14-5.47,7.23-31.32,5.22-46.85,8.84,16,18.64,30.8,26.86,30.72,3.73,0,7.86-3.08,10.36-3.85-12.89-5.2-21.63-28.93-29.55-43.7,14.85,23.25,32.48,33.73,40.79,35.3.3-7.19,1.89-27.31-16.6-55.18,33,17.49,40.06,6.19,42,.17-14.91,5.19-35-14-48.49-20.06l-.18-.54c19.71,9,39,12.1,51.08,4.51-10.29-15.87-20.25-21.65-31.08-25.73,21.4,2.37,28.41-4.91,28.85-12.87-7.81,2.63-15,3-24.34,1.56,20.47-4.13,24.17-12.81,24-13.68a51.79,51.79,0,0,0-24.1-9.51c24.69-8.87,16.84-17.23,15.92-19.86-7.67,7.2-21,12.33-23.42,12.12,11.53-6,21.52-21.73,20.87-23.51-5.75-3-17.68-2.82-22.47-1.37,4.8-5.26,11.09-14.26,5.28-21.75-5.58,7.9-10.89,12.09-16.2,16.21,4.82-6.09,10.41-13.07,12.32-27.38-7.21.95-13.74.24-23.1,6.42,5.37-6.71,8.68-13.31,9.33-21.3-32.25,2.26-69.94,19.17-88.13,61.32-5.28,12.38-1.16,33.45,15.43,31.05,2.62,10.63-4.42,17.13-19.7,16.66-.33-3.56.79-10.61-3.6-14.32,3.72-.24,4.44-2.15,5.22-3.78-10-2.3-8.36-5.61-6.5-23.34a3.67,3.67,0,0,0,3.94-.82c-4.12-3.8-2.76-10.84-.68-33,.42-9.66-1.57-14.49-3.69-16.16,1.28-.65,2.12-1.7,1.46-4.11,4.61-.81,2.66-6.44.76-8.26-.93,2.51-4.89,3.43-8.64.65,4.54-2.07,4.58-7.21,1.12-10.78Zm18.65,238.11c.15.18.31.35.47.52l-.48-.49v0Zm-94.37.68c-.45,1.67.35,6.24.44,9.28,1.53.75,4.23,0,7.32-1.2l-.5.21c-2.32.86-5.1,1.75-6.84,1.05l-.55-6.81a6.89,6.89,0,0,1,.11-2.53Zm-1.14.32c-.26.07-.52.14-.79.19Zm97.46.83a12.6,12.6,0,0,0,9.17,2.19c.09-.2.16-.39.23-.59,0,.22-.12.45-.18.67a11.58,11.58,0,0,1-9.22-2.27ZM678.91,383.1Zm87.43,3.78c3.21,3.36,15.57,12.51,29.9,8.09,1.19,8.1-5.69,11.15-11.13,10s-13.3-5.33-18.77-18.14ZM737.85,389c-4.65,8.85-12.36,16.34-19.22,18.14s-13.26-1.61-10.77-10.52c14.82,5,26.87-3.82,30-7.62Z"/><path id="path3413" class="cls-3" d="M625.92,396.24c3.58,1.65,8,.53,10.39-.16,1.29,1.22-.39,6,3.4,9.54-2.16.95-14-2.7-13.79-9.38Z"/><path id="path3415" class="cls-3" d="M620.82,370.6c1.49,4.75,5.69,5.26,7.4,6.24,0,1.79-4.64,1.71-4.81,8.19C620.2,384.74,615.73,377.24,620.82,370.6Z"/><path id="path3417" class="cls-3" d="M644.7,409.81c5.79,1,7.89-2.13,9.18-2.31.68,1.9,3.26,4.37,5.78,5.66-1.17,4.25-15.21,3.32-15-3.35Z"/><path id="path3419" class="cls-3" d="M689.36,394c-.34-.73-7,.08-8.2-1-.83,1-1.08,4.43-3.59,5.72C679.17,401.58,690.29,400.62,689.36,394Z"/><path id="path3424" class="cls-3" d="M813.59,389.9c3.52.86,7.81-1.44,9.86-1.48,1,1.88,1.33,3.94,5.27,5.26-2.6,2.89-12.36,3.84-15.13-3.78Z"/><path id="path3426" class="cls-3" d="M852.94,405.88a25.44,25.44,0,0,1-5.2,4.12c4.41,4,13.37-.49,13-4.38C860,404.09,857.38,407.4,852.94,405.88Z"/><path id="path3428" class="cls-3" d="M870.11,391.83c.07,5.22-.6,6.59-1.19,8.38,2.51,1.71,9-2.35,9.68-8.49-.68-1.46-3.44,1.08-8.49.11Z"/><path id="path3430" class="cls-3" d="M882,363c-1.87.47-.75,6.81-2.89,8.82,1.75,1,2.94,3.31,4.22,5.42,4.12-3.12,4-12-1.33-14.24Z"/><path id="path3603" class="cls-4" d="M741.88,96.74a6.66,6.66,0,0,1,3.35.77c-2.15,3.32,1,6.49,2.75,6a6.45,6.45,0,0,0,3.21,1.62c-2.83.59-12.32-2.33-9.31-8.4Z"/><path id="path3665" class="cls-3" d="M716.81,115.94c-10.63-20.44,20.12-24,23.23-7.14a37.82,37.82,0,0,1,14.36,3.89c13.12,9.52,5.15,15,2.5,14.53-6.11.1-7.26-5.77-16.18-3.53-2.15.81-2.26,1.91-3.22,1.88-5.32-1.36,4.43-12,14.91-4.34.93.68,3-.66,1.17-2.67-7-7.09-19.19-3.19-21.86-2.53-3.41-5.51-10.93-4.25-14.91-.09Z"/><path id="path3605" class="cls-4" d="M747.3,99.27c1.34,1.07,8.11,2.17,8.27,2.8C753.4,107.19,746.31,105.61,747.3,99.27Z"/><path id="path3667" class="cls-5" d="M727,105.14c1.91,2.86,5.11-.79,10.48,4.84l.63-.27c-1.2-4.85-4.48-7.8-9.3-8.32,2,1.81.55,1.92.47,3.07S729.34,106.72,727,105.14Z"/><path id="path3741" class="cls-5" d="M732.09,66.62c1.83,3.2-3.27,12.81,5.51,11.37,3,1.87,5.65.85,7,.86,5.82-2,5.65-6,6-7.11-5.05-7.11.61-8.46,1.23-8.91,3.12.38,4.73,6.14.53,8,.34.26.85.22,1.53-.14-.06,9.23,6.5,9.88,11,8.38,9,2.45,4.61-7.91,8.84-15.62-4.8,8.45-1.71,16.14-8.71,15.16,1.8-4.37-2.95-7.77-.6-12.5-3.65,3.12,2.42,8.9,0,11.9-2.47,2.16-4.86.36-4.92-.6-1-3.13,6.15-6.94,1.87-12.7,1.46,3.12,1,4.52.17,6.51s-3.81,3.78-2.43,7.72c-3.14-.62-4.77-4.34-3.9-7.28s2.33-7.74-3.15-9.31c-6.92,2.08-3.4,7.55-2.57,8.53,1.7,1.84-1.41,7.39-5.31,7.36,1.78-2.72-.33-3.27-3-7.61-.19,2.3,5.24,5.42,2.13,7.24a3.83,3.83,0,0,1-4.79-.39c-1.76-2,2.48-4.34,1.7-8.18-1.14,5.63-2.78,5.3-2.56,8-2,.58-4.17,1.31-4.83-2.58,0-5.34-.07-8.63-.82-8.06Z"/><path id="path3747" class="cls-6" d="M736.44,81.05a22,22,0,0,1,8.21.1c1.56.41,1.57,3.13,0,3.69a60,60,0,0,1-8.18-.1,2.25,2.25,0,0,1,0-3.69Z"/><path id="path3749" class="cls-6" d="M748.47,84.54c-.59-.63-1.42-2,.2-3.66a37,37,0,0,1,7.55.33c2.35,1,2.14,3.07.2,4a37.15,37.15,0,0,1-7.95-.63Z"/><path id="path3751" class="cls-6" d="M760.36,85.16c-.54-.67-1.25-2.09.5-3.63,6.26.33,5.21.4,7.5,1,2.26,1.16,1.88,3.23-.13,4-5.42.11-6.36-.78-7.87-1.28Z"/><path class="cls-4" d="M762.17,223.25c-5.94,4.36-14.87,2.95-18.53.72l-.45.36c6.63,3.8,15.89,3.77,20.88.36A11.43,11.43,0,0,1,762.17,223.25ZM772.23,229c-4.29,3.68-9.8,5.4-17.57,3.45l-.29.39c4.16,1.51,12.8,2.27,18.94-1.89Zm-3.61,22.56a58.43,58.43,0,0,1,3.38-5.4c-1.52-.9-3.09-2.46-4-3S763.58,247.17,768.62,251.54ZM732.1,231.8c8.33,4.38,16.58,5.8,22.3.57a8.77,8.77,0,0,1-2.17-1.34c-3.86,3.73-10.58,5.21-20.19,0A1.2,1.2,0,0,1,732.1,231.8Zm8.34-74.51c.5,9.52,12.53,2.47,15.4-3.77C751,156.81,746.14,159.78,740.44,157.29Zm26.83,94a15.63,15.63,0,0,1-1.53-1.72c-3.54,1.93-6.2,1.32-8.91.86C760.32,252.24,766.12,252.41,767.27,251.25Zm-10.52,14.24a33,33,0,0,0,.72,9.4c.51,2.35.32,10.75-.27,20.15,2-14.77,3.85-31.25,7-38.22l-1.63-1.9c-4.46,2.69-8.17,2.9-11.93,3.25C753.21,259.92,758.78,258.12,756.75,265.49Zm-16.39-15.12a6.28,6.28,0,0,1-2-2,13.63,13.63,0,0,1-3.58,4,12.2,12.2,0,0,1,.65,2.58C736.91,255,737.81,251.2,740.36,250.37Zm-13.88-12.92,2,2.56c0-4.77,5.16-5.81,3.13-9C730.57,234.83,726.39,234.33,726.48,237.45ZM738.11,240a3.18,3.18,0,0,1-1.25-1.31c-2.43,4.29-4,4.82-5.56,5.65.72,1,1.23,1.73,1.69,2.4A13.82,13.82,0,0,0,738.11,240Zm14.95,8.24c-4.83,3.39-8.73,3.58-12.56,2.14,2,1.8,9.58,2.65,14.19-.64C754.1,249.26,753.49,248.73,753.06,248.28Zm12.63,9.35c-5.7,14-3.1,48.92-13.46,55.75l.27,6.15c13.67-16,7.31-47.64,13.64-61.45ZM745.81,154.74c4.05-.2,11.5-2.71,15.91-11.88l0,0h.05c1.66-2.62,4.51-11.72-.06-19.62.13,2.27-2.32,4.6-6.1,4l.95.95a5.4,5.4,0,0,0,4-1.26,1.93,1.93,0,0,1-1,2c.75,6.68,0,10.57-.92,13.55l.08-.07-.14.2C756.36,148.6,751.3,151.88,745.81,154.74ZM773.65,336.6c-9-12.79-10.81-30-11.48-41.65-.79,4.62-1.31,10.18-2.53,13.28C761.73,332.16,768.24,334.46,773.65,336.6Zm-.95-149.27c-1.14-5.82-14.26-6-7.64-23.81C758.14,172.84,759.09,182.76,772.7,187.33ZM761,111.48c18.29,31.69-10.81,45.09-13.55,77.19C757,152.43,786.17,130.78,761,111.48ZM753.22,350c.37-12.41,1-23.82,2.08-33.35l-2.89,3.44Zm-37.38-65c-2.68,6.15-9.78,8.71-17.9,10.43l-1.94,3c3.7-.2,8.57-.05,18.94-9.59,8-1.69,15.11-7.66,21.37-18.1C731.11,277.14,726.36,284,715.84,285Zm30.79,2.14c-.28-9.18-1.36-24.38-2-25.4-1.49-2.54-1.1-4,2-3.88-1.63-.42-3.28-.76-4.43-2.35a6.44,6.44,0,0,1-2.71,2.08c7,7.37,3.31,41.6,10,47.26C747.8,301.11,746.66,295.59,746.63,287.09ZM738,359.74c4,.13,8-3.57,10.07-6.42-3.31-9.77-3.37-18.43-3.25-27-2.8,6.33-1.87,18.47-9.76,26.39,6.54-3.35,9-11.48,9.22-17.8l.63,6.69c-2.16,13.65-8.35,17.41-12.7,18.24.9-.14,7.59,1,13.74-12.64C746.15,352.23,742.61,357.85,738,359.74ZM749.25,314c-5.94-10.16-5.68-16-6.42-22.33-.07,22.63,3.66,26.9-11.74,45.73,7.17-6,15.19-24.29,14.18-13.83C747.09,320.23,748.85,316.9,749.25,314Zm-54.86-10.14a8.41,8.41,0,0,1-1.86,2.77c4.59,1,10.88-.83,21.63-9.78,10.63-.25,15.07-7.22,18.1-10.24-5.65,4.87-11.38,7.46-17.19,7.53C709.43,299.91,703.26,304.59,694.39,303.88ZM749.2,356.3l-.72-2.07c-7.32,9.48-22.91,17.9-28.06,3C722,372.45,741.36,367.83,749.2,356.3Zm30.22,2.33c-8.6-.42-14.42-11.15-15.73-20.35a.52.52,0,0,0-.88.11l-1.48,8.35C764.62,352.86,771.46,362.71,779.42,358.63Zm-9,4.72c-9.24-4.55-9.87-9-10.53-13.42l-.86,2.53C762.12,359.26,765.73,361.63,770.44,363.35Zm-95.79-50.77c9,2.41,15-15,18.44-26.74-1.58-3.15-3.83-6.41-4-20.66l-.77.77C687.38,284.22,687.21,304.39,674.65,312.58Zm38.55-6.25c7.51.43,12.69-4.45,17.19-9.4-5.06,4-10.25,7.31-16.16,6.57-5.81,8.44-14,12.37-25.12,10.69A11.44,11.44,0,0,1,687,316.7C700.55,318.46,708.11,312,713.2,306.33Zm13.94,23.44c-1.89-16.37,4.65-28.07,13.71-37-.61-15.26-2.75-22.11-4.42-33.11.12,5.1,3.73,19.05,1.28,28.8-2.55,10.15-9.81,20-17.44,18.83C717.29,322.42,722.2,328.34,727.14,329.77Zm108-174.07a13.85,13.85,0,0,1,10.17-.86,10.67,10.67,0,0,1-2.62,9.94c6.93,5.12,8.69,9.38,9.08,13.87a7,7,0,0,1-1.45.91c1.18-.09,5,1.49-1.94,6.59,5.82-2.13,11.11-12.82,1.49-21.05,4.66-9.43-2.54-17.4-14.46-15.54l-1.76,3.34ZM791.05,283c-4,0-9-1.76-13.4-6,.85,4.34,8.14,7.58,14.56,8.5.82,1.07,7.39,7.71,12.17,7.79a6.22,6.22,0,0,1-1.16-2.13C796.87,289.46,794.07,286.19,791.05,283ZM767.5,112.33c18,23.58-1.85,43.66-5.1,51C770.63,155.52,789.51,126.64,767.5,112.33ZM816.34,236a13.69,13.69,0,0,1-4.47-.67l6.19,25.07Zm1,29.69c-4.56-4.79-10.71-11.52-12.72-27,3.06-1.7,4.44-3.77,5.43-4.09a7.27,7.27,0,0,0-.32-4c-3.06,2.93-5.83,6.38-12,5.88-.41,0,0,.57,0,.57,2.39,3.2-2.44,1.24-5,.64,0,.1-.14.15,0,.39a16.86,16.86,0,0,0,5.95,1.47l5.56,32.77c-.43-8.53-1-17.34-1.22-25.49a42.34,42.34,0,0,1-1.53-7.35,13.19,13.19,0,0,0,2.11-.38C807.09,259.92,815.7,264.09,817.37,265.72Zm-53.15-41-.34.43c4.72,1.83,10.53,1.65,14.62-.52a6.6,6.6,0,0,0-1.11-2.12C773,226,768.59,225.67,764.22,224.69ZM754.43,216h0l-.35.31c6.23,4.26,15.75,1.69,18.28,0-.32-1-.64-1.88-1-2.62A16,16,0,0,1,754.43,216Zm18.72-22c.06,13.71-12.24,15.82-10.54,19.62.53-3,10.35-5.8,12.84-13.93C774.77,197.9,774,196.8,773.15,194ZM778.49,225c-1.38,3.61-4.47,4.37-4.79,6a.7.7,0,0,1-.58.35c1.42,1.79,2.88,4,5.53,4.31C778.58,233.68,779.87,227.62,778.49,225Zm-16.65-40.57c-6.9,11.32,4,10.05,1.47,25.68,4.89-11.95-4.16-16.58.39-23.77,2.51,2.52,6.76,2.82,9.52,6.71C772.45,189.07,764.24,186.71,761.84,184.39ZM776,240.65c7.92,3.67,12.68-.28,16.26-2.56l-.61-4.6c-3.78,6.21-13.06,8.33-18.5.16-3.31,1.35-2.07,5.81-5.65,6.49,1.43,3.18,4.22,5,7.7,6.16A14.94,14.94,0,0,1,776,240.65Zm-23.17-39.52c2.63,3,7.55,4.64,9.4,10.28-1.5-8.13-10.16-8.92-10.93-17.18h-.7c1.7,11.6-9.34,15.72-8.82,18.65C743.7,209.32,751.32,207.44,752.83,201.13Zm7.54-28.63c-6.89,3.75-6.7,17.36-13.92,20.39,7.93,3.71,11.63-5.32,15.39-8.82C760,179.77,760.51,176.24,760.37,172.5Zm-30.6,53.05c2.49,1.6,8.91,1.2,13.7-1.72a13,13,0,0,1-2-1.85A13,13,0,0,1,729.77,225.55Zm3.7-9.06h0c2.28,3.39,15.55,3.95,20.71-.57a8.39,8.39,0,0,1-2.11-1.89A17,17,0,0,1,733.47,216.49Zm40.1-87.5c-.65.3-.71,2.86-1.6,2.81-.55,18.27-17.18,28.43-21.09,54.82,2.43-2.83,4.18-14,10.42-24.2C767.81,151.74,774.21,145.74,773.57,129ZM746,188l-.19-4.47c-9.58,7.64-4.39,12.18-3.45,24.79C744.7,205.05,740.09,190.27,746,188Zm14.31,169.56a14.3,14.3,0,0,1-2.12-2.84,11.09,11.09,0,0,1-.67,1.62c8.2,30.42-1.46,46.64-3.62,49-5.68-10.08-5.62-20-6.87-28.5.74,7.61-.1,17.51,6.51,29.86l.09,5C761.68,401.66,766.57,387.73,760.31,357.52Zm-112,18.41c5.48-.81,10.14-5.56,12.1-6.54-5.6,1-17.53-2.76-20.3-2.78a4,4,0,0,0-2.47-2.33h-.08c-1.48-.06-1.06,5.94-9.86,5.7a1.54,1.54,0,0,0-1.44.83c-1.08,2,2.52,6.1,5.79,5.86a9.26,9.26,0,0,0,6.73-3.88c.67-.38,5.34-3,5-1.85C638.28,373.61,639.65,375.3,648.34,375.93Zm62.71-6.44c-8.78-.18-18.3,16.14-2,24.41-8.13-4.75-8.54-14.67-5.89-17.92,1.77-2.83,4.38-3.62,2.57-.45-1.26,5.1,1,7.7,2.56,8.72Q704.54,375.09,711.05,369.49ZM709.48,319l-1,1.07c-1.25,5.64-4.2,10.14-7.62,14.45,3.12.51,7-1.26,10.69-2.87C709.21,327.32,708.72,324.45,709.48,319Zm21.76,94.15a50.66,50.66,0,0,0,14.57-18.08,69.76,69.76,0,0,1-1.47-10.93c-2.46,20.13-16.4,28.38-26,30.48,7.68-.39,15.11-3,25.82-19.68C742.14,401.21,737.39,407.18,731.24,413.13Zm19.68-4.19c1.06,6.68,1.61,15.26,2.35,23.13,1.07-8,1.75-15.83,3.25-23.9a18.83,18.83,0,0,1-2.94,4A9.71,9.71,0,0,1,750.92,408.94ZM597.39,298.85l1.24-1.54c-1.43-24.58,24.54-53.51,34.44-65.15C625.34,240.51,595.82,269.92,597.39,298.85Zm65.79-83.12c-2.95-1.89-6-3.43-8.47-8l-2.48,1.2c-6.11,5.07-13.47,10-20.57,14.72l22-11.21a23.19,23.19,0,0,0,5.81,4.79c-13.34,9.17-23.78,8.71-28.87,7.4.73-9,6.13-16.73,18.27-22.12-3.6,1.5-17.51,6.53-18.91,22.16l-3,1.67C645.91,232.68,660.32,218.39,663.18,215.73Zm-63.79,14.41c.12.43,1.06.23,1.24.69a4.33,4.33,0,0,1,2.84.61c.75,1.42,2.72.66,3.15.54a98.82,98.82,0,0,0,20.14-5.5,24.83,24.83,0,0,1,.85-5.33C626,222.58,617.69,227,599.39,230.14Zm82.3,39.53c-6.31-5.65-9.36-14.78-7.62-29l-1.75,2.79-19.18,77.86,20.33-64.86c1,3.78,2.27,7.7,7.56,13.86-7.46,26.46-19.3,50.1-29.47,56.32l1-3.2c-4.33-13.12-.86-40.66,6.54-68.37-4.72,15.19-14.46,48.4-8.29,72.6l-1.94,6c20.13-13.75,32-48.19,36.42-65.76A10.6,10.6,0,0,1,681.69,269.67Zm-48.62-37.51a14.22,14.22,0,0,0,1.79-2.14C634.35,230.64,633.75,231.36,633.07,232.16ZM739.9,124.29c16.76,1.26,13.37,17.19,11.05,21.15,3.49-4.08,8.87-10.75,3.67-18.4C751.35,126.55,747.19,121.33,739.9,124.29Zm144.44,68.64c-4.87,9.13-20.36,9.81-30.91,8.4a3.29,3.29,0,0,1-.27,1.09c11.45,6,19.47,17.26,19.16,25l3.88,3.21c-1.49-12.91-6.12-17.74-10.79-22.54l54.8,21.46L867,204.59c7.1-1.62,14.5-2,20.6-9.4l12.56-.45c10.71-1.65,22.89-7.85,24.13-13.65l-4,.45C915.11,192.91,894.85,192.52,884.34,192.93ZM767.21,365a19.71,19.71,0,0,1-6.39-6.58c5.75,30.68,26.78,31.82,33.16,27.15C782.88,389.8,766.48,379.92,767.21,365ZM626.94,202.52a41.63,41.63,0,0,1-5.8-3.21l-.91.37c4.57,2.19,6.31,4.86,17,6.41,2.37-1.26,4.57-2,6.83-3-7.67-.88-15.39-1.35-22.62-6.3l26.07-2,1.46,1.75.24-.3a34.35,34.35,0,0,1-2.85-4.42c-9.72,2.13-17.64,3.43-25.1,4.54,1.44-4.75,7-7.52,11.79-10.65-1.13.54-9.8,3.94-13.49,11.07a25.51,25.51,0,0,0,8.17,4.36C630.84,202.31,630.08,203.58,626.94,202.52Zm216.31,18.29h0a2,2,0,0,1-.64.7c8.3,12.86,8.5,20.7,7.41,27.73l3.39,4.41c1.68-9.84-.14-17.1-2.5-24l41.34,60.06-36.54-58.47,7.73,1.09C857,230.21,850.47,229.47,843.25,220.81Zm83.65,11-4.16-1.54c-11.88,7.86-40.61-2.76-47.89-7.59a38.89,38.89,0,0,1,1.08,4.61C902.91,239.75,919.08,236.67,926.9,231.79Zm-52-9.13Zm9.22-23.81a17.56,17.56,0,0,1-4.3,2.53,98.1,98.1,0,0,1,16,4.7c14.18,1.48,28.22-.68,28.83-12.74C918.59,202.94,901.6,201.17,884.07,198.85ZM793.22,390.51c11-4.59,13.78-15.6,3.58-22.68C805.8,377.77,801.65,385,793.22,390.51Zm-30-13.35V379a25.86,25.86,0,0,0,24.6,12.78C775.76,391.5,768.19,385.89,763.25,377.16Zm38.91-6.33c8.79,17-7.62,24.58-17.31,22.81C801.11,399.7,811.05,381.16,802.16,370.83Zm-16,43.64c12.84,4.51,22.72-8.67,13.1-18.21C804.76,405,799.73,416.31,786.12,414.47Zm-2.23-204.84c-.67-7.42-.37-17.19-4.86-22.5l.19-.89a2.81,2.81,0,0,0,3.26-.51c-1.54-.33-3,0-4.73-1.79a15.17,15.17,0,0,1-.51,5.81C780.46,191.61,782.59,208.85,783.89,209.63Zm94.44-49c-6.85,3.36-13.71,6.8-20.56,9.58a9.56,9.56,0,0,1,.68,2.48C865.39,169,871.86,164.85,878.33,160.67Zm-64.93,150a5.93,5.93,0,0,1-1.68-2.5c-5.92.3-16.42-1.6-20-8.44a21.48,21.48,0,0,1-12.87-4.25c1.71,2.26,11,6.56,13.58,7.47C802.12,309.06,808.45,310.67,813.4,310.64Zm-49.83,25.15a.34.34,0,0,0,.54-.09c-2-1.36-4.07-8.05-5.65-10.26,1.18,7.24,2.1,17.49-5.28,32.76-2.23-2.65-3.82-6.9-5.33-11.34h0c.67,3.28,1.63,8.07,5.33,12.7l.27,5.78c1.69-2.22,8.24-20.76,8.36-26.84C762.05,336.57,762.16,334.34,763.57,335.79ZM785.32,308c-.72,5.5-2,10.5-4.38,14.29a28.78,28.78,0,0,1,.13,5.41C784.79,323.92,787.52,313.14,785.32,308ZM883,193c-9.94-.85-20.11-1.6-29.82-2.57a31.3,31.3,0,0,1,.77,3.34Zm-93.78,97.59a23.66,23.66,0,0,1-12.43-5.35c2.47,3.06,7.43,6.34,14,8,3.94,3.65,14.71,8.47,16.93,8.25l-1.48-2.58C799.23,298,793.84,295.44,789.25,290.56Zm-57.32-104.1c4-2.77,6.44-1.7,14.39-8.21l3-7.86c-6.7,9.85-14.62,16.6-26.07,14.25.68.39,1.06,1.33,5.75,1.6-2.43,2.35-4.51,7.43-6.77,13C725.31,194.6,728,189.22,731.93,186.46Zm-9.83,44.06,3.93,6c-2.57-5.3-5.11-6.5-3.38-8.62a4.21,4.21,0,0,1,.79-.67,2.81,2.81,0,0,0,1.6,2.3c.12-5.58,7.23-5.36,7.73-13.48a22.08,22.08,0,0,1-2.62-2.05C731.64,224.06,718,225.13,722.1,230.52ZM754,398.5c.33-12.34,1-25.73,1.4-36.82l-1.85,4.11-2.45-4.2C751.54,373.22,752.93,386.12,754,398.5ZM679,233c-5,16.46-2.25,24,1,28.74-5.76-12.21-1.1-24.74-.42-28.19Zm3.55,32.85-.6,3.43a28.62,28.62,0,0,0,9-6c.44,11.15,2.06,16.62,4.1,20l-.21,4.41c8.35-5.3,16.28-23.2,17.54-38.85a32.21,32.21,0,0,1-7.45-2.52,26.51,26.51,0,0,0,3.42,2.27c.66.36,1,1.09.9,2.26-1.33,19.15-10,29.1-14,32.09-2.59-5.46-3.44-12.61-3.63-20.39,3.24-3.46,6-8.14,8.3-14.69l-3.68,31.31,7.61-33.36c-2-1.49-3.49-3.15-3.76-5.31,3.86,2.87,8.48,4.77,15.74,3.34l.34.25c3.49,1.54,7.14,2.87,14.21-.51l.68.43-2.48-3.59h0c-4,3.27-8.79,3.44-12.28.85l-.3-.17.34.68a3,3,0,0,1-.08,1.8l-.17-.26a7,7,0,0,1-.26-2.39c-1.27-.61-11.47,2.86-15.57-4.54l-.09.26c.11.26.17.62.39.77-.21.66-.33,1.44-.64,1.45l-.34.09a10,10,0,0,0,.34-2.82c-7.42,2.51-15.08.88-20.45-7.87.11,1-.68,4.34-1.46,3.25V232a51.5,51.5,0,0,0,8.3,7.27l-3.42,25.58,7.19-24.73a22.84,22.84,0,0,0,8.72,0C695.88,255.21,689.72,262.18,682.52,265.86ZM735,100.26c1.86,2.07,3.76,3.14,5.51,8.14a14,14,0,0,1,3.88.54C742.23,105.48,739.59,102.29,735,100.26Zm20.55,26.93Zm77.7,50.13-1.71-8.88a.21.21,0,0,0,0-.06h0l19.94,10.17c.06-2.84-2.09-9.09-9.22-13.78,4.06-3.6,2.93-9.8,2.71-9.75h0l-7.9,7-.07,0c-1.52-7-5-14.34-14.62-15.46a181.55,181.55,0,0,1,9.07,21.79l-14.35,18.52C826.37,186.49,830.05,182.4,833.27,177.32ZM774,204c-5.28,9.61,3.39,12.11,5.59,22a16.41,16.41,0,0,1,.89-2.15l-1.13,3.07c44.54-3.12,67.85-17.51,61.77-47.53a47.11,47.11,0,0,1-7.25-1.75c8.51,31.16-19.28,40.07-52.05,43.05,2-5.29,3.21-13.12-6.35-19C789.87,220.67,769.32,222.47,774,204Zm-24-97.73c3.41,2.7,10.6,1.39,13.69-3,5.51.42,6.72-.49,8-1.86-4.21-.87-6.15,1.2-16.7-1.71-9.69-2.78-21.52-11-21.79-1.18l1.9.72c.18-1.36.7-2.93,1.4-3.07,4.41-.87.27,1.45,1,2.17s1.76,1.18,2.71,1.76c0-.66.09-1.44.14-2.35.07-3.55,10.27,2.17,17.44,4.52C758.49,104.37,753.72,107,750,106.27Zm24.94-1.85c2.25,4.14,5.88,10.65.54,9.35,9.36,20.78-.9,31.46-6.06,43-10.86,28.3,7.12,17.08,5,36.82,6.12-7.14-1.84-17.5-1.5-21.07-.44-5.19,2.83-16.39,3.9-23.16a13.34,13.34,0,0,0,5.69,7.45C778.3,142.12,791.42,113.11,774.91,104.42Zm79.74,54.85-.45,3.7c9.21-6.71,14.16-18.91,12.88-29.23l-3.3,3.39-14.37,11.66a18.11,18.11,0,0,1,2.17,2.08l12.2-13.38C864.59,148.51,857.16,157.07,854.65,159.27Zm-44.22,3.81,13.34,4.29a39.61,39.61,0,0,1-3.49-6.75C816.79,160,812.46,160.76,810.43,163.08Zm34.51-44.2c-2.31,1.73-4.64,1.67-13.15,7,5.86-2.53,11.58-4.93,15.54-5.69l25.44-23.63C866,101.48,851.67,113.86,844.94,118.88Zm2.3,1.44h0l-2.48,2.9c1.06,5.69,1,13.36-7.41,22.68l.27.49.59-.18c6.68-8.32,13.7-10.48,20.73-12.56-4.09,1-8.17,1.69-12.78,4.07C849.3,128.18,847.9,123.29,847.24,120.32ZM824,141.47c4.6-.12,8.61,1.7,11.3,7.82,14.86-2.27,18.54,8.6,14.81,15.81,9.8,8.49,3.61,19.43-1.76,21.46,3.27,7.27,5,16.92-5,20.65,0,6.48-.93,16.58-16.27,16.44-1.83,4.37-7.28,11.83-16.53,7.86a2.61,2.61,0,0,1-.09.55c-.15.51,3.82,1.5,3.88,1.26,3.15.36,3.52,2.42-.31,1.54a27.17,27.17,0,0,1-3.62-1.22,1.47,1.47,0,0,1-.18,1c10,3.45,15.75-2.58,18.89-7.77,11.91-.62,16.83-7.19,17.43-17.44,9.76-6.11,8.39-15.33,5.38-21.69,8.69-6.5,8.07-17.91,1.49-23.22,4.47-15-8.9-19-15.94-18a13.43,13.43,0,0,0-5.61-5.69l12.61-17.13-15.32,15.77a17.21,17.21,0,0,0-6-.68c3.25-8.16,16-14.34,21-15.76-8,1.17-19.06,10.06-20.73,13.77-.16.38.1.91-2.76,2.44l.13.5C823.57,138.58,831,139.7,824,141.47ZM765.23,238c-8.13,6.36-17.32,7.43-26.9,2.14l-.35.67c6.08,3.49,15.95,6.1,28.5-.26Zm-145-38.43.76-.25a13.66,13.66,0,0,1-2.9-2.53c-6.21-1.3-34.43,4.63-41.07-3.68C580.11,203.21,605.35,200.65,620.28,199.6Zm-.65-6.8a37.22,37.22,0,0,1,5.31-4.92l-.3-.26c-6.25,8.22-35.21,2.81-46.07-9.32h1.67c3.54-4.2,11.29-5.35,17.92-7.32-7.71.83-15,2.47-20.79,7.15C581.53,183.53,596.25,192.85,619.63,192.8ZM668.75,370ZM622.07,163.92a37.55,37.55,0,0,1,8.86-4.79,3.77,3.77,0,0,1-1.16-.55c-14.55,8.66-39-12.64-40.38-17.2l3.51,1.24c4.63-3.07,13.91-1.48,21.69-1.41-7-1.7-19.07-3.17-26.18,0C594.29,151.9,610.59,160.37,622.07,163.92ZM640,149a16,16,0,0,1-2.27-7.36c-5.48,2.57-30.53-8.28-36.49-21.91C601.69,131.73,623.08,141.14,640,149Zm-33.88,19a83.35,83.35,0,0,1,18.27,1.15,9.81,9.81,0,0,1-2.61-3.93c-22.78,2.7-35.28-8.1-38.5-11.38C587,161.39,596.15,165,606.16,168Zm18.18,202.36c-1-.46.32,3.71-1.44,3.18a14.29,14.29,0,0,0,5.42,2.82C626.13,374.57,624.81,373.34,624.34,370.39Zm2.6,25.66c1.55,1,5.73.72,6.19.38-.46,0-3.89-.21-5.37-1.5A2,2,0,0,1,626.94,396.05Zm24.31-147.3a60.6,60.6,0,0,1,.21-12.53,22.08,22.08,0,0,0-.94,6.8c-4.35,11.34-33.42,53.37-51.16,54.84l53.08-68.06a20.18,20.18,0,0,1,3.39-7.61,24.07,24.07,0,0,1-3.73,2.22c-19.3,26.3-38.61,53-57.92,78.89C609.32,302.24,635.54,276.57,651.25,248.75Zm-18.53-20.53-1.36-.08c-9.47,4-33.89,29.53-55.53,23.69,4.45,7,11.95,11.35,40-5.73C621.49,239.91,627.11,233.54,632.72,228.22ZM649.58,280a155,155,0,0,0,7.61-24.89,37.94,37.94,0,0,1-4.44,1.54c-13,29-20.21,54.92-43.3,63C630.41,323.62,644.49,290.05,649.58,280ZM848.19,127.91h0l0,1.86a93.42,93.42,0,0,0,21.14-17.22c3.86-5,8.81-11.93,9.4-21.41l-3.8,3C874.14,109.89,853.82,123.47,848.19,127.91Zm-73.75-24.54c6.2,3.23,12.11-.42,8.94-4.73-4.62,3.68-9.56.21-11.63.06C778,101.85,772.82,102.33,774.44,103.37Zm-42.81-5.32c-.26-3.15.55-4.94,2.09-5.78-1.44.85-2.22,2.63-2.05,5.78l1.09.27c-.14-12.47,23.7,3.4,30.94,2.58-2.68-.16-6.15-1.47-9.83-3-8.24-5.16-23.26-13.67-25,0A6.18,6.18,0,0,1,731.63,98.05Zm21.72-.42c-5.68-2.46-11.76-5.48-16-5.91C741.67,92.08,747.82,95,753.35,97.63Zm22.46-8.43c-3.43,1.27-1.63,10.16-20.78,5.06C769.88,101.69,779.21,94.63,775.81,89.2Zm41.3,86.92-.25-.06.25,0c.55-1.86,1.06-4.85,4.43-7.68-1.06.77-2.23,1.71-3.53,2.84a13.91,13.91,0,0,1-7.77-8.13c2.65-3.43,9-2.93,9.85-2.71-1.83-6.91.54-12,2.26-14,5.71.53,8.67,3.47,11,6.1l1.72-3.07c-1.57-4.85-6.35-8.5-12-7.34-4.71.5-10.05,4.58-7.92,14.16-12.79,5.16-9.13,16.73-.88,19.33-8.25.47-10.36-6.86-9.54-11.52.77-5.18,5.71-8,7.13-8.52-.38-4.57-.53-9.11,3.93-12.93a27.35,27.35,0,0,1,5.87-8.81c6.76-24.48,40.87-36.67,52.46-39.49C809.81,105.52,774.09,183.11,817.11,176.12ZM780.6,157.28c-1.72-1-2.47-2.69-3.52-4.15-6.81,20.31-1.41,34.48,8.49,29.54C773.4,181.3,781.48,163,780.6,157.28ZM667.24,144a20,20,0,0,1-1.58-4.54,7.66,7.66,0,0,0,.85,3.81c-7.37-2.12-37.67-23.66-52.51-33.27,5.59-1.76,13.5,1.52,20.93,3.75-6.26-2.43-11.94-5.21-22.81-4.78,16.87,12.23,26.08,19.93,38.48,29.52C656.26,139.36,661.73,141.88,667.24,144Zm-49.07-20.87a99.22,99.22,0,0,0,19.72,16.39c2.44-1,5.84-1,8.9-1.27-18.72-1.46-35.51-19.87-35-29.34l-4.18-2.48c.32,4.1,2.21,8.92,7,15.06C616.33,120.71,617.13,123.3,618.17,123.15Zm134-1.77c1.13.07,1.27-.77,1.09-1.48-12.07-10.83-24.93,5.11-39.13,1.78C727,128.55,741.81,112.85,752.19,121.38Zm-108.61-7c-4.52-5.23-11.72-10.38-11-18.21,8.62-.15,19.18,4.66,30.37,11.07-12-8.64-27.51-14-35.45-14.94C629.21,101.74,636.77,108.46,643.58,114.37ZM632.75,96.71c11.48,8.48,19.8,16.56,28.86,24.74,2.56,2.15,2.2,4.47,2.48,6.78.93-1.09-.29-4.81,1.7-5.19s9.06,3.36,9.49,2.77c-16.94-7.51-28.22-19.51-42.17-29.4ZM691.61,177c26.23,6.64,23.43-33.82-13.67-58.44C686.2,126.48,723.07,173.21,691.61,177ZM577.07,193.14Zm143.5-15.72c2.6,13.15,25.63,1.26,33.74-18.21a16.76,16.76,0,0,1-7.8,4.79C733.91,182,726.57,180.43,720.57,177.42ZM668.75,370c-7.46,3.64-12.59,16.79-31.1,15.06-.46,1.62-1.49,1.94-2.44,2.44-3.86-.05-8.31.87-8.27,3.28.06,2.92,4.55,4.75,7.56,4.39s6.23-3.28,6.24-6.2h0a.59.59,0,0,1,.57-.42C661.8,384.16,664.94,373.64,668.75,370Zm153.7,6.84c-2.47-.36-5.9,1.21-5.67,2.9.16,2.15,4.41,4-1.48,6.15,3.86,0,9.27.62,10.6-4.52,6,2.87,12.26-2.66,10.87-7.75C836.77,373.66,834.84,382.46,822.45,376.88ZM856,388.49a70.44,70.44,0,0,0-8-6.86c3.14,3.19,5.15,6.13,4.45,8.53,2-2.81,2.13-1.12,2.56,0,2.32,1.79,4.06,7.21-1.74,10.72,2.72.74,3,3.17,0,4,.13,2.57,7-.63,7.6.41.53-.23.71-1,.85-1.82a2.37,2.37,0,0,0,0-2.78C866.19,393.33,860.69,389.31,856,388.49ZM840,359c-10.8,5.52-18.82-3.62-23.59-9.67,6,4.82,10,5.69,16.3,6.06a7.28,7.28,0,0,0,.86-2.28,3.29,3.29,0,0,1-1.5-.59c-7.35,2.78-16.18-2.8-23.09-12.16,6.58,4.72,11.28,4.26,15.76,4.33.69-.8,1.64-1.49,1.77-2.51a3.83,3.83,0,0,1-1.64-.36c-4.61,1.6-15.92,1.06-21.35-8.43,3.77,2.53,8,4,13.29,2.69,1.07-.81,2.22-1.62,2.46-2.55-6.61,1.68-13,1.65-18.94-3.55a12.7,12.7,0,0,0,5.24-1.41c-3.47.29-7.06-.07-11.25-4.1l-.27.86c3,2.71,28.83,31.17,36.52,43.35-1.16-2.58-.67-3.65-5.24-9.1,11.69,6.55,17.44.73,16.75-.55A3.72,3.72,0,0,1,840,359Zm28.13-126.46c10.52,15.2,29.09,39.35,27.83,64-15.2-3.1-28.2-22.83-39.66-38,6.94,10,20.57,34.6,40.16,39.13l2.58,5c2.46-33-18.65-57.23-26.84-70.58A14.29,14.29,0,0,1,868.16,232.51Zm-50.08,156.8c2-.6,4.11-1.61,4.89-1.34C824.17,383.76,821.37,386.21,818.08,389.31Zm58-161.47.64,3a15.21,15.21,0,0,1-4.28,1.21l.7,1.22C891.28,242.91,911.61,262,924.2,248,911.15,253.21,890,234.79,876.09,227.84Zm2.41,133.57c-2.09-4.2-8.66-5.9-12.21.55-2.15,1.93-10.18,1.71-13.88,3.32,3-.31,10.93,1.47,12.93.87,5.88-7.95,12.17.56,4.92,3.37,0,.79-.16,1.27-.6,1.45,1.82.43,3.08.91,5.56-2,0,.77,0,2.66,1.68,1,.36.55.71,1.1,0,1.64,3.88,1.84,3-5.64,4.37-8.7C881.11,361.72,880,361.4,878.5,361.41ZM852.85,254.24a70.56,70.56,0,0,1-7.23-1.85q1.44,5.81,2.71,11.79c11.89,18.87,21,50.83,39.26,47.21C873.34,307.37,852.92,254.88,852.85,254.24Zm12.69,124.2c-4.73-2.67-9.07-5.67-15.87-6.94,13.47,5.79,15.79,7.61,13.43,7.92-2.14.29-9.68-4-14.84-5.73,4.72,3,11.14,5.31,17.21,9.27,6.07-6,10.55,3.94,1.85,4.6,2.2,4.05,11.47,3.78,11.2.56C884.29,377.19,868.65,374.5,865.54,378.44ZM848,381.63ZM708.49,413.71a13.1,13.1,0,0,0,6.52,1c-13.46-4.41-10.47-11.58-9.14-18.46-13.15,8.66-5.88,19.38.19,21.85C703.75,416.35,701.29,410.37,708.49,413.71Zm-21.65-21.79c0,2.28,4.81,1.79,3.9-.85C690.28,389.74,689,392.36,686.84,391.92Zm-6.11-12.87c-3.51,3.26,11.2,3.75,3.93,11.74,6.46.3,9.13-2.68,9.13-5.9C694.52,382.39,690.49,372.93,680.73,379.05Zm7.09-25c6.55-6.91,13.06-15.11,17-19.82a17.46,17.46,0,0,1-2.76.5c-4.61,6.06-12.14,15.16-18.83,23.06-6.15,7.28-10.19,11.7-5.64,16.22C675.29,367.81,681.26,361,687.82,354.05ZM672,370.4c-.81,5-17,19.82-17.7,24.67-.86-.66-2.09-1.14-4.67-1,1.5,7.43-4.71,9.7-6.36,8.43,0,3.36,4.87,4.75,8,4.14,3.73-.71,6.85-6.41,4.69-9.88.49-6.15,8.57-7.94,12-15.83,3,0,3.43-4.65,7.14-5.51C674.32,373,671.29,376.14,672,370.4Zm108,41.14c.4.32.82.64,1.24.95C780.85,412.16,780.44,411.84,780,411.54Zm-34.09-15.85c-6.39,16.28-18.62,25.68-32.46,25.24,3.78.69,7.85,2.8-3.84,1.59,6.17,2.15,24.2,2.9,37.7-23.13A8.84,8.84,0,0,1,745.94,395.69Zm35.52,23.51c-1.42-.5-2.78.08-4.54-.7,21.27,13.58,36.55-9.67,28.25-17.76C809.86,416.08,794.15,423.62,781.46,419.2Zm-18.15-31.82c-.08,1-.13,1.56-.38,3.13,7.66,15.29,12.2,17.4,17.1,21A47.19,47.19,0,0,1,763.31,387.38Zm2,22.87c-1.74-3.88-3.79-7.22-2.48-11.52a2,2,0,0,0-1.41-1.81,19.82,19.82,0,0,1-1.89,5.51c3.08,18.49-1.29,28.43-6.37,36.78-8.33-11.2-6.78-23.28-6.92-33.61-2.42,21,2.65,30.2,6.83,35l0,5.1c11.86-17.42,10.69-33.59,8-41.29a42.65,42.65,0,0,0,4.15,5.87Zm79.75-158a23.17,23.17,0,0,1-5.52-2.35,23.82,23.82,0,0,1,3,2.53c10,39.38,4.44,63,1.85,71.2-14.38-12.51-17.72-43.32-20.55-59.32l-.46.86c3,17.51,6.63,48.81,21.33,60.05l.72,5.78C853.88,315.71,851.47,273.58,845.08,252.21Zm-210.86-94a26.07,26.07,0,0,1,10.7-.05,13.66,13.66,0,0,1-2.36-2.61l-.3.13,1.46,1.93c-19.79-6.75-34.41-10.42-49.58-14.42C608.73,148.32,622.58,153.36,634.22,158.24Zm32.47-32.55c-1.65,5.41.85,13.47,2.48,16.09-.57-4.89-2.14-11.4-.48-12.64,3.34,5.17,6.69,9.56,10,15.66-3.32.95-6.51,1.42-8.71-1.69a31.19,31.19,0,0,0,3.33,5.08,11.86,11.86,0,0,1,6-.78,16.08,16.08,0,0,1,4.78-.67c-3.8-4-9.89-13.44-14.88-18,8.16-1.46,20,9.83,23.23,22.27C692.16,147.55,688.5,130.4,666.69,125.69Zm-16.6,34.77c-1.54-.07-3-.1-4.34-.1C647.15,160.44,648.58,160.49,650.09,160.46Zm-9.67-19.12c-.2,2,1.57,11.83,10.4,17.49a1.19,1.19,0,0,0,1.37,0,10.08,10.08,0,0,0,2.35-2.35c-9,1.09-13-9.12-12.75-14.46,15.46-1.3,25.12,5.81,28,6.42C656.71,140.34,647.22,140.18,640.42,141.34Zm14.35,111.09.43-.54c-3.61-12.41.14-26.24,4.9-32.19C657.74,222.53,649.73,233.72,654.77,252.43Zm-9.21-69.94a12.84,12.84,0,0,1,2.78-6.16,6.56,6.56,0,0,0-2.35,2.74c-.7,2.26-2.66,1.37-4.45.9-6.42-1.92-14.06-9.35-15.23-14.29,7.41,2.89,17.81,6.08,23.44,8.38a11.23,11.23,0,0,1,2.87-2.78,188.05,188.05,0,0,1-26.18-6c.71-.85,4.76-4.89,19.31-4.93-6.5-.35-12.19-1.11-20.64,4.76C625.68,166.21,628.46,176.91,645.56,182.49Zm-66.83,48.4c9.78,3,17.13.38,21.56,0-.2-.28-1-.23-1.11-.68-7.31,1.05-16,1.54-18.46.12l1.82-.91c.56-8.66,21.27-19.5,24.56-21.72C602.27,210,582.19,220.69,578.73,230.89Zm28.37-23.23Zm21.26-22.39c2.16-1.9,6-3.14,12.06-3.55a31.83,31.83,0,0,0-7,.22c-17.79.25-34.59-2-51.76-3.26C597.24,180.87,612.4,182.77,628.36,185.27Zm4,26.75c4.49-6.53,16-9.22,17.36-10.11v-.6c-17.47,5.88-33.33,15.65-66.06,27.77Zm-38.25-68.8Zm81.45,74.21c.47.28.95.55,1.44.82C676.55,218,676.07,217.69,675.59,217.43Zm-9.51-5.84c3.17,2.91,6.34,4.14,9.51,5.84-20.6-12-14.72-26.45-14.46-30.64-3.49.12-6.06-.6-7.93-1.94.64-6,3.82-11,10.59-14.27a18.09,18.09,0,0,1-2.55.84c-.79-.16-2.72-5.15-.3-8.41,1.39-.87,5.15-1.19,9,.31,2.25-4.53,5.17-8.57,11.25-10.23,1.5,1.56,4,6.18,2.24,14.22a12.94,12.94,0,0,1,7,5.08c-.62,2.56-1.25,3.27-1.87,3.93,9.76.11,10.71-13.59-.17-15,1.76-12.9-14.78-20.6-22-4.69-13.25-3.55-16.8,6.77-11.8,14.82-1.62,1.19-14.72,10.85-2.24,24.69,0,6.81,1.71,13.44,11,19.24,2.66,7.81,4.34,7.83,6.23,9.55-5-5.91-4.27-9.65-4.11-11.73-5.52-4.17-4.07-5.82-5-7.5C662.25,209,664.17,211.28,666.08,211.59Zm-4.81-48.51,7.37,6.81a39.57,39.57,0,0,1,1.36-6.26C668.23,162.45,662.47,162,661.27,163.08ZM716,207.2l.89.51c.95-1.36,1.74-1.69,2.13-1.15s-.33,1.54.68,2.43c3.22-2.57,10.61-4.26,11.5-8.05,1.36,3.79,6,3.9,9.72,10.47-.89-5-6-6.35-8.11-9.71s-.86-7.55.82-13c-3.48,4.72-.74,11.41-6.42,14.41C723.58,205,716.7,204.63,716,207.2Zm151.29-73.68,20.19-23.18-25.34,23.13A36.89,36.89,0,0,1,867.26,133.52ZM665.37,153.7c-8.64-3.59-15-7.19-22.38-10.78l15.66,11.42c2,.11,4.05,0,6.07,1A11.45,11.45,0,0,1,665.37,153.7Zm5.22,30.9c1-2.45,3.91-10.82,3.44-10.62l-20.68,10.66C657.88,188.31,668.13,185.86,670.59,184.6Zm-17.24,0ZM690,172.49l-8.82.79h0c3.13-6.44,3.77-15.55,0-19.84l-6.94,20.46h1l-1,0,12.54,19.37c1.48-5.05.16-10.72-2-15C689.05,176.72,689.89,174.08,690,172.49Zm-13.18,18.13c-4-2.51-4.88-3.65-6.18-5.94-10.67,30.54,35.29,35.28,47.54,36.19l-1.48-7.66C694.43,212.22,673.7,207.32,676.77,190.62Zm171.84,17.73a6.89,6.89,0,0,1-1.85,1.15,3,3,0,0,1-.13,1.28l22.56,14Zm-14.06,18.2a25.39,25.39,0,0,1-4,.54h0l18,20.37Zm-9.89,90.34a18.55,18.55,0,0,1-4.12-1.22c-9.15,4-18.27.61-23.5-1.67,2,3.14,18.79,4.41,7.73,5.86C812.8,320.94,821.55,320.15,824.66,316.89Zm18.74-1.57-10.52-70.84A28.88,28.88,0,0,1,824.29,233l-.81.58c4.4,14.67.93,24.06-4.84,31.9l.59,4.65c5.49-5.49,8.87-13.61,8.95-25.84ZM867.21,178.7h0a77.3,77.3,0,0,1,15.64,9.13L879,184.3c12.42-1,25.06-2,39-2.8l-44.18-.27Zm-46,90.22a12.69,12.69,0,0,1-1.79,1.85c-4-2.33-5.26-4.2-7.41-6.32-1.35,4.18-2,8.58-7.41,11.5l.26,5c3.08-2,6-2.6,10.09-12.07,1.68,16.79,1.9,33.12,11.69,36.48C821.57,293.8,821.56,281.13,821.2,268.92Zm46-126.91-.86,3.07a65.85,65.85,0,0,0,13.78-11.65,50.64,50.64,0,0,0,12.47-27.34l-4.43,3.57C888.85,124.85,871.82,139.48,867.17,142Zm-4.52,11.7-1.26,2c12.45-9,22.3-14.46,29.82-16.81,7.45-7.88,9.15-15.67,6-20.19C897.74,133.27,874.6,144.17,862.65,153.71Zm17.63,12.76a11.74,11.74,0,0,1-.73,1.11c14-2.52,18.28-6,25.61-14.16,5.62-6.24,8.79-12.19,8.32-13.08l-4.38,1.9C905.94,153,891.08,163.53,880.28,166.47Zm-3.8,5.22a144.2,144.2,0,0,1,23.9-.17c1.9-1.08,21.68-6.85,16.9-17.31-5.69,11.45-26.81,15.38-28.47,16.31C885.49,170.86,877.29,171.19,876.48,171.69ZM859.6,159.34c11.59-2.51,19.21-2.94,23.45-1.6l-2.68,1.66c-3.5,11.54-16.54,18.26-22.49,20.32h0a14.08,14.08,0,0,1-.7,1.86l9.71-2.82c14.53-10.42,15.22-15.63,17.06-21.27l22.17-13.8L881,156.21C867.27,156.34,863.78,158.24,859.6,159.34ZM684.29,354.54a23.87,23.87,0,0,1-10.1,2.37c0,.48-.72,1.39-1.4,2C677.08,358.81,681.26,357.92,684.29,354.54Zm7.31-9.39c-2.82,1.29-7.27,2-11.36,2a19.13,19.13,0,0,1-2.26,2.65C681.51,350.18,688.57,348.54,691.6,345.15Zm8-9.89a28.4,28.4,0,0,1-11,2.46c-.64.68-2.72,2.71-3.5,3.36C688.54,341.47,696.52,338.65,699.56,335.26Zm.3-8a13.36,13.36,0,0,1-3.06,8.37,33,33,0,0,0,3.68-1.22C700.36,332.16,700.15,329.51,699.86,327.26Zm-25.55-87.32,5-11.63c-4.19.7-7.05-.55-9.15-2.91l-.86,1.37c-1.07,1.48-1.9,1-2.65-.26-1.39-2.42-4.2-5.23-4.71-7.62,0,3.56,4.16,6.13,2.57,9.42l-7.87,20.87,11.9-20.68a22.88,22.88,0,0,0,7.78,3.4c-3.77,9.21-11,19.14-21.05,20.11l-2.39,4.44C660.66,253.74,668.45,251.29,674.31,239.94Zm2.7,123.3a49.68,49.68,0,0,1-14-.75C664.15,365.3,668.13,366.36,677,363.24Zm44.12-25.69c-4.43-4.73-3.1-6.8,1.69-7.28-9.34-7.21-5.07-15-2.92-22.63-1.64,1.56-5,7.36-6.83,3.82C707.59,326.23,712.48,333.29,721.13,337.55Zm23.08,44.78c0-1.35.12-3,.25-4.72-13.06,18.57-22.89,17.67-31.37,17.44C723.36,397.46,733,393.82,744.21,382.33ZM720,389.06c8,.64,16.62-5.88,19.29-8.72,1.93-3.35,4.43-4.54,2,0a18.28,18.28,0,0,1-3.39,4.16c1.9-.77,5.83-6.84,6.64-7.36.34-6.38,1.78-9.91,2.89-14.28C740.3,377.54,731.75,388,720,389.06Zm85.57-60.7a11.94,11.94,0,0,0-1-8.76c-7.69-1.62-10.15-4.65-13.84-9h0c4,10.38.41,24.2-12.37,26.59,4,1.64,15.8-3.76,17.45-19.83Zm-94.11-13.44c-5.68,5.83-12.67,8.54-21.26,8,4.45.81,4.35,1.46.55,2.14C701.24,326.09,708.32,322.53,711.43,314.92Z"/></svg>